<svg xmlns="http://www.w3.org/2000/svg" viewBox="0 0 120 120" width="120" height="120">
  <g transform="translate(60 60) rotate(0) translate(-20 -36)"><path d="M20,36 C8,24 0,16 0,10 C0,4 4,0 10,0 C15,0 18,3 20,6 C22,3 25,0 30,0 C36,0 40,4 40,10 C40,16 32,24 20,36 Z" fill="#0e5a72"></path></g>
  <g transform="translate(60 60) rotate(90) translate(-20 -36)"><path d="M20,36 C8,24 0,16 0,10 C0,4 4,0 10,0 C15,0 18,3 20,6 C22,3 25,0 30,0 C36,0 40,4 40,10 C40,16 32,24 20,36 Z" fill="#2c88a2"></path></g>
  <g transform="translate(60 60) rotate(180) translate(-20 -36)"><path d="M20,36 C8,24 0,16 0,10 C0,4 4,0 10,0 C15,0 18,3 20,6 C22,3 25,0 30,0 C36,0 40,4 40,10 C40,16 32,24 20,36 Z" fill="#5faec1"></path></g>
  <g transform="translate(60 60) rotate(270) translate(-20 -36)"><path d="M20,36 C8,24 0,16 0,10 C0,4 4,0 10,0 C15,0 18,3 20,6 C22,3 25,0 30,0 C36,0 40,4 40,10 C40,16 32,24 20,36 Z" fill="#9bcfda"></path></g>
</svg>